# xmcd
#
# Track frame offsets:
#	150
#	11097
#	21977
#	35230
#	47275
#	61135
#	74207
#	87817
#	102322
#	111647
#
# Disc length: 1663 seconds
#
# Revision: 8
# Processed by: cddbd v1.5.2PL0 Copyright (c) Steve Scherf et al.
# Submitted via: EZCDAudioConverter 7.1.5.1
#
DISCID=8c067d0a
DTITLE=George Strait - Greatest Hits
DYEAR=1986
DGENRE=Country
TTITLE0=Unwound
TTITLE1=Down And Out
TTITLE2=If You're Thinking You Want A Stranger (There's One Coming Home)
TTITLE3=Fool Hearted Memory
TTITLE4=Marina Del Rey
TTITLE5=Amarillo By Morning
TTITLE6=A Fire I Can't Put Out
TTITLE7=You Look So Good In Love
TTITLE8=Right Or Wrong
TTITLE9=Let's Fall To Pieces Together
EXTD=
EXTT0=
EXTT1=
EXTT2=
EXTT3=
EXTT4=
EXTT5=
EXTT6=
EXTT7=
EXTT8=
EXTT9=
PLAYORDER=
